<svg height="489pt" viewBox="0 0 489.78995 489" width="489pt" xmlns="http://www.w3.org/2000/svg"><path d="m244.898438 72.582031c-95.226563 0-172.703126 77.476563-172.703126 172.703125 0 95.222656 77.476563 172.699219 172.703126 172.699219 95.222656 0 172.699218-77.476563 172.699218-172.699219 0-95.226562-77.476562-172.703125-172.699218-172.703125zm0 329.402344c-86.402344 0-156.703126-70.300781-156.703126-156.699219 0-86.402344 70.300782-156.703125 156.703126-156.703125 86.398437 0 156.699218 70.300781 156.699218 156.703125 0 86.398438-70.300781 156.699219-156.699218 156.699219zm0 0"/><path d="m460.917969 270.753906c2.230469-20.175781 1.703125-40.558594-1.570313-60.59375l25.101563-24.074218c2.421875-2.320313 3.136719-5.90625 1.792969-8.980469l-28.171876-64.398438c-1.363281-3.109375-4.535156-5.023437-7.917968-4.773437l-34.753906 2.558594c-12.441407-16.085938-27.253907-30.195313-43.929688-41.835938l1.027344-34.726562c.101562-3.390626-1.949219-6.476563-5.117188-7.699219l-65.542968-25.300781c-3.15625-1.214844-6.734376-.316407-8.9375 2.242187l-22.519532 26.101563c-20.175781-2.234376-40.5625-1.707032-60.597656 1.566406l-24.085938-25.105469c-2.320312-2.421875-5.90625-3.136719-8.980468-1.789063l-64.398438 28.171876c-3.109375 1.359374-5.019531 4.53125-4.773437 7.914062l2.554687 34.757812c-16.085937 12.441407-30.195312 27.253907-41.835937 43.925782l-34.726563-1.019532c-3.390625-.105468-6.480468 1.945313-7.699218 5.117188l-25.300782 65.542969c-1.214844 3.152343-.320312 6.730469 2.238282 8.9375l26.101562 22.519531c-2.230469 20.175781-1.703125 40.5625 1.566406 60.59375l-25.09375 24.078125c-2.421875 2.320313-3.136718 5.90625-1.792968 8.980469l28.179687 64.398437c1.355469 3.109375 4.53125 5.023438 7.914063 4.773438l34.757812-2.5625c12.441406 16.089843 27.25 30.195312 43.925781 41.839843l-1.023437 34.722657c-.097656 3.390625 1.953125 6.476562 5.117187 7.699219l65.546875 25.300781c3.152344 1.21875 6.730469.320312 8.9375-2.238281l22.515625-26.101563c20.175781 2.234375 40.5625 1.707031 60.59375-1.566406l24.074219 25.101562c2.320312 2.421875 5.90625 3.136719 8.980469 1.789063l64.398437-28.171875c3.109375-1.359375 5.023438-4.53125 4.773438-7.914063l-2.554688-34.757812c16.085938-12.441406 30.195313-27.253906 41.839844-43.925782l34.722656 1.019532c3.394532.105468 6.480469-1.945313 7.699219-5.113282l25.300781-65.546874c1.214844-3.152344.320313-6.730469-2.238281-8.9375zm-9.859375 85.960938-33.4375-.984375c-2.757813-.082031-5.363282 1.261719-6.890625 3.558593-11.90625 17.875-26.828125 33.539063-44.101563 46.300782-2.207031 1.632812-3.421875 4.28125-3.222656 7.019531l2.460938 33.449219-54.089844 23.667968-23.15625-24.144531c-1.859375-1.9375-4.566406-2.8125-7.210938-2.332031-21.195312 3.882812-42.863281 4.445312-64.226562 1.660156-2.667969-.34375-5.332032.671875-7.089844 2.707032l-21.617188 25.066406-55.007812-21.230469.984375-33.4375c.085937-2.761719-1.261719-5.367187-3.554687-6.898437-17.875-11.902344-33.542969-26.828126-46.300782-44.101563-1.632812-2.203125-4.28125-3.421875-7.019531-3.222656l-33.453125 2.460937-23.671875-54.089844 24.144531-23.15625c1.9375-1.859374 2.8125-4.566406 2.332032-7.210937-3.882813-21.191406-4.441407-42.859375-1.660157-64.226563.34375-2.667968-.671875-5.332031-2.707031-7.085937l-25.058594-21.625 21.230469-55.003906 33.4375.980469c2.757813.089843 5.363281-1.253907 6.890625-3.550782 11.90625-17.875 26.828125-33.542968 44.101562-46.300781 2.207032-1.632813 3.421876-4.28125 3.222657-7.019531l-2.460938-33.449219 54.089844-23.675781 23.15625 24.144531c1.859375 1.9375 4.570313 2.816406 7.210937 2.332031 21.199219-3.882812 42.867188-4.441406 64.238282-1.660156 2.664062.34375 5.328125-.671875 7.085937-2.707031l21.621094-25.058594 55.003906 21.230469-.984375 33.4375c-.078125 2.757812 1.265625 5.363281 3.5625 6.890625 17.871094 11.90625 33.539063 26.828125 46.296875 44.101562 1.636719 2.207031 4.285157 3.421875 7.019531 3.222657l33.453126-2.460938 23.667968 54.089844-24.144531 23.15625c-1.9375 1.859375-2.816406 4.570312-2.332031 7.214844 3.882812 21.191406 4.441406 42.859374 1.660156 64.222656-.34375 2.667968.671875 5.332031 2.707031 7.089844l25.050781 21.621093zm0 0"/><path d="m216.460938 201.917969c1.261718.226562 2.539062.339843 3.820312.339843 2.28125-.011718 4.550781-.34375 6.738281-.992187 2.757813-.789063 4.882813-2.988281 5.570313-5.773437.6875-2.785157-.167969-5.722657-2.242188-7.703126-2.074218-1.980468-5.046875-2.699218-7.796875-1.886718-1.058593.339844-2.179687.429687-3.277343.265625-3.269532-.582031-6.066407-4.296875-6.800782-9.03125-.410156-2.847657-2.320312-5.253907-5-6.304688-2.679687-1.046875-5.714844-.574219-7.953125 1.234375-2.234375 1.8125-3.324219 4.683594-2.855469 7.523438.546876 3.585937 1.738282 7.042968 3.519532 10.199218-1.207032 1.394532-2.097656 3.027344-2.621094 4.792969-.738281 2.550781-.65625 5.269531.230469 7.769531 1.191406 3.457032 4.582031 5.667969 8.226562 5.363282 3.644531-.304688 6.617188-3.046875 7.21875-6.65625 1.046875.371094 2.125.660156 3.222657.859375zm0 0"/><path d="m212.449219 275.003906c-2.667969-3.523437-7.683594-4.21875-11.207031-1.550781-2.523438 1.957031-5.640626 2.996094-8.832032 2.949219-1.476562-.089844-2.925781-.453125-4.269531-1.074219-.476563-.332031-.992187-.609375-1.53125-.832031-3.175781-2.035156-5.398437-5.257813-6.175781-8.949219-.910156-4.324219-5.148438-7.09375-9.472656-6.183594-4.324219.90625-7.09375 5.148438-6.1875 9.472657.792968 3.761718 2.292968 7.335937 4.421874 10.539062-1.671874 1.695312-2.9375 3.75-3.699218 6.007812-1.976563 5.925782-.097656 12.367188 4.910156 16.808594 3.289062 2.921875 8.328125 2.636719 11.265625-.640625 2.941406-3.277343 2.679687-8.3125-.582031-11.269531.226562-.109375.460937-.191406.699218-.253906 3.078126 1.363281 6.375 2.160156 9.738282 2.351562.511718.03125 1.019531.042969 1.519531.042969 6.460937-.097656 12.722656-2.277344 17.851563-6.210937 3.523437-2.664063 4.21875-7.683594 1.550781-11.207032zm0 0"/><path d="m212.023438 293.40625c-2.710938-.960938-5.726563-.394531-7.902344 1.484375-2.175782 1.878906-3.175782 4.78125-2.617188 7.601563.554688 2.820312 2.582032 5.125 5.308594 6.039062 2.027344.574219 3.917969 1.558594 5.550781 2.894531-.046875.257813-.121093.511719-.214843.753907-2.839844 3.351562-2.445313 8.363281.878906 11.230468 3.324218 2.867188 8.339844 2.519532 11.234375-.78125 2.390625-2.921875 3.828125-6.507812 4.117187-10.269531 1.101563-11.644531-11.070312-17.132813-16.355468-18.953125zm0 0"/><path d="m340.738281 217.496094c.703125-6.28125-.769531-12.617188-4.175781-17.941406-2.628906-3.898438-6.171875-7.097657-10.320312-9.3125.1875-.511719.359374-1.03125.515624-1.550782 3.414063-11.277344.929688-27.460937-12.582031-36.351562-4.058593-2.679688-8.589843-4.550782-13.355469-5.515625-3.289062-12.191407-14.351562-22.378907-28.171874-25.03125-10.164063-1.769531-20.617188.363281-29.277344 5.960937-8.214844-5.722656-18.398438-7.871094-28.222656-5.960937-12.996094 2.347656-23.347657 12.199219-26.335938 25.0625-4.707031.972656-9.1875 2.835937-13.199219 5.484375-13.511719 8.890625-16 25.074218-12.582031 36.351562.15625.519532.328125 1.039063.515625 1.550782-4.148437 2.214843-7.691406 5.414062-10.320313 9.3125-3.40625 5.324218-4.878906 11.660156-4.175781 17.941406-9.238281 5.683594-15.785156 14.859375-18.152343 25.445312-1.417969 6.695313-.765626 13.660156 1.867187 19.972656-4.671875 3.695313-9.960937 9.347657-11.964844 16.640626-2.96875 10.820312 2.296875 21.785156 13.609375 29.355468-2.804687 9.300782-.679687 19.390625 5.644532 26.769532 6.371093 7.433593 16.277343 10.71875 26.230468 10.71875 4.941406 0 9.847656-.800782 14.53125-2.367188 3.960938 2.242188 8.363282 3.589844 12.898438 3.949219 4.269531.332031 8.5625-.238281 12.601562-1.667969 4.351563 6.359375 9.730469 10.007812 16.050782 10.882812 1.207031.164063 2.421874.246094 3.640624.246094 6.222657-.0625 12.28125-1.992187 17.394532-5.542968 5.472656 3.492187 11.800781 5.410156 18.292968 5.546874 1.242188.003907 2.484376-.082031 3.71875-.25 7.828126-1.082031 13.390626-6.386718 16.851563-11.050781 8.734375 3.183594 18.425781 2.390625 26.523437-2.175781 4.738282 1.609375 9.707032 2.429688 14.710938 2.429688 9.949219 0 19.863281-3.285157 26.230469-10.71875 6.324219-7.378907 8.449219-17.46875 5.644531-26.769532 11.316406-7.570312 16.578125-18.535156 13.609375-29.355468-2-7.292969-7.292969-12.945313-11.964844-16.640626 2.636719-6.3125 3.289063-13.277343 1.878907-19.972656-2.371094-10.585937-8.921876-19.761718-18.160157-25.445312zm-116.175781 123.847656c-3.90625-.539062-6.699219-6.738281-7.640625-8.8125-.957031-2.121094-2.785156-3.71875-5.015625-4.378906-2.226562-.664063-4.632812-.324219-6.589844.929687-2.320312 1.566407-4.976562 2.5625-7.753906 2.90625 2.132812-3.097656 3.679688-6.558593 4.566406-10.210937 1.023438-4.28125-1.605468-8.585938-5.878906-9.632813-4.277344-1.046875-8.597656 1.5625-9.664062 5.832031-.664063 2.992188-2.304688 5.679688-4.664063 7.636719-8.746094 7.148438-24.410156 5.84375-29.714844-.34375-3.667969-4.402343-3.984375-10.699219-.777343-15.449219 1.253906-1.949218 1.597656-4.351562.945312-6.574218-.652344-2.226563-2.238281-4.058594-4.347656-5.023438-6.457032-2.960937-13.417969-8.515625-11.800782-14.4375 1.402344-5.109375 8.164063-9.835937 10.394532-10.925781 2.230468-.980469 3.894531-2.921875 4.519531-5.277344s.140625-4.867187-1.3125-6.824219c-3.175781-4.148437-4.367187-9.476562-3.265625-14.582031 1.316406-6.367187 5.730469-12.132812 12.105469-15.820312 12.824219-7.410157 30.601562-4.171875 38.832031 7.074219 2.605469 3.566406 7.613281 4.34375 11.179688 1.734374 3.566406-2.605468 4.34375-7.613281 1.738281-11.179687-10.019531-13.699219-28.171875-19.902344-45.070313-16.828125.257813-.964844.664063-1.882812 1.199219-2.726562 3.085937-4.773438 9.792969-6.085938 9.800781-6.085938 2.785156-.476562 5.113282-2.386719 6.125-5.023438 1.011719-2.640624.554688-5.617187-1.199218-7.832031-1.308594-1.609375-2.296876-3.453125-2.917969-5.429687-1.800781-5.953125-.300781-14.167969 6.0625-18.355469 9.449219-6.210937 21.582031-4.382813 30.914062 4.660156 3.175781 3.03125 8.207031 2.933594 11.265625-.21875 3.058594-3.15625 3-8.191406-.132812-11.273437-5.789063-5.726563-13.027344-9.78125-20.9375-11.726563 2.382812-5.089843 7.105468-8.6875 12.644531-9.640625 5.871094-1.167968 11.964844.242188 16.726563 3.878906v115.882813c-.367188-.15625-.671876-.277344-.890626-.363281-4.089843-1.4375-8.582031.640625-10.128906 4.691406-1.550781 4.050781.410156 8.59375 4.417969 10.25 2.527344.988281 4.785156 2.554688 6.601563 4.574219v61.875c-2 1.582031-6.226563 3.621093-10.335938 3.050781zm129-57.554688c1.625 5.921876-5.339844 11.476563-11.800781 14.4375-2.109375.964844-3.695313 2.796876-4.347657 5.023438-.652343 2.222656-.308593 4.625.949219 6.574219 3.207031 4.75 2.886719 11.046875-.777343 15.449219-5.308594 6.1875-20.96875 7.5-29.71875.34375-2.359376-1.957032-4-4.644532-4.664063-7.636719-1.066406-4.269531-5.382813-6.878907-9.660156-5.832031-4.277344 1.046874-6.90625 5.351562-5.882813 9.632812.890625 3.671875 2.449219 7.152344 4.601563 10.261719-3.125-.265625-6.136719-1.28125-8.785157-2.957031-1.957031-1.253907-4.363281-1.59375-6.59375-.929688-2.226562.660156-4.058593 2.257812-5.015624 4.378906-1.472657 3.265625-4.992188 8.3125-8.640626 8.8125-4.546874.628906-9.632812-1.761718-12.332031-3.648437v-56.761719c.988281-1.746094 1.285157-3.800781.828125-5.75-.214844-.914062-.492187-1.808594-.828125-2.683594v-23.175781c1.148438-1.597656 1.664063-3.566406 1.449219-5.523437-.058594-.480469-.03125-.96875.078125-1.441407.667969-2.855469 4.726563-5.570312 8.453125-7 2.699219-1 4.652344-3.375 5.117188-6.214843.460937-2.839844-.636719-5.710938-2.875-7.515626-2.242188-1.804687-5.277344-2.269531-7.957032-1.214843-1.457031.5625-2.882812 1.210937-4.261718 1.945312v-80.421875c5.773437-3.96875 12.574218-5.617187 18.730468-4.4375 5.902344 1.089844 11.0625 4.632813 14.199219 9.746094-7.738281 1.992188-14.808594 6.003906-20.492187 11.621094-2.078126 1.984375-2.933594 4.929687-2.238282 7.71875.691406 2.785156 2.828125 4.988281 5.589844 5.769531 2.765625.78125 5.738281.015625 7.785156-1.996094 9.332032-9.046875 21.464844-10.871093 30.910156-4.660156 6.359376 4.1875 7.863282 12.402344 6.0625 18.355469-.621093 1.976562-1.609374 3.820312-2.914062 5.429687-1.765625 2.203125-2.238281 5.171875-1.238281 7.8125.996093 2.636719 3.316406 4.550781 6.097656 5.03125.066406.011719 6.777344 1.324219 9.859375 6.101563.539062.839844.941406 1.761718 1.203125 2.726562-16.902344-3.074218-35.046875 3.125-45.070313 16.828125-2.578124 3.566407-1.792968 8.546875 1.757813 11.144531 3.550781 2.597657 8.535156 1.839844 11.152344-1.695312 8.230469-11.246094 26.007812-14.488281 38.828125-7.074219 6.378906 3.6875 10.792968 9.453125 12.109375 15.820313 1.101562 5.105468-.089844 10.4375-3.265625 14.582031-1.453125 1.957031-1.9375 4.46875-1.3125 6.824219.625 2.355468 2.289062 4.296875 4.519531 5.277344 2.226563 1.085937 8.984375 5.816406 10.386719 10.921874zm0 0"/><path d="m273.332031 201.921875c1.09375-.203125 2.175781-.492187 3.226563-.863281.601562 3.609375 3.574218 6.351562 7.21875 6.65625 3.644531.304687 7.03125-1.902344 8.222656-5.363282.886719-2.5.96875-5.21875.234375-7.769531-.523437-1.765625-1.417969-3.398437-2.621094-4.789062 1.777344-3.160157 2.96875-6.617188 3.515625-10.203125.472656-2.835938-.617187-5.710938-2.855468-7.519532-2.234376-1.8125-5.273438-2.285156-7.953126-1.234374-2.679687 1.046874-4.585937 3.453124-5 6.304687-.734374 4.730469-3.53125 8.445313-6.800781 9.03125-1.097656.160156-2.214843.070313-3.273437-.269531-2.75-.8125-5.722656-.09375-7.796875 1.886718-2.074219 1.980469-2.929688 4.917969-2.242188 7.703126.6875 2.785156 2.8125 4.988281 5.570313 5.773437 2.1875.648437 4.457031.980469 6.738281.992187 1.277344 0 2.554687-.113281 3.816406-.335937zm0 0"/><path d="m318.832031 259.363281c-4.324219-.910156-8.566406 1.859375-9.472656 6.183594-.777344 3.691406-3 6.914063-6.175781 8.949219-.539063.222656-1.054688.5-1.53125.832031-1.34375.621094-2.792969.984375-4.269532 1.074219-3.195312.050781-6.308593-.988282-8.832031-2.949219-2.277343-1.765625-5.324219-2.167969-7.984375-1.058594-2.65625 1.109375-4.511718 3.5625-4.859375 6.421875-.34375 2.859375.875 5.683594 3.191407 7.394532 5.128906 3.933593 11.390624 6.113281 17.855468 6.207031.5 0 1-.011719 1.519532-.039063 3.359374-.195312 6.65625-.988281 9.730468-2.351562.242188.058594.476563.144531.703125.25-3.1875 2.972656-3.40625 7.949218-.496093 11.191406 2.910156 3.242188 7.878906 3.558594 11.179687.714844 5.007813-4.441406 6.886719-10.878906 4.910156-16.804688-.765625-2.257812-2.03125-4.3125-3.710937-6.007812 2.132812-3.199219 3.636718-6.777344 4.429687-10.539063.90625-4.324219-1.863281-8.5625-6.1875-9.46875zm0 0"/><path d="m277.769531 293.40625c-10.578125 3.640625-17.148437 11.730469-16.355469 20.125.371094 3.390625 1.8125 6.578125 4.117188 9.097656 2.933594 3.265625 7.949219 3.558594 11.242188.65625 3.292968-2.902344 3.628906-7.917968.757812-11.238281l-.011719-.011719c.515625-.757812 2.074219-2.335937 5.460938-3.5 2.726562-.914062 4.753906-3.21875 5.308593-6.039062.558594-2.820313-.441406-5.722656-2.617187-7.601563-2.175781-1.878906-5.191406-2.445312-7.902344-1.488281zm0 0"/></svg>