<?xml version="1.0" encoding="iso-8859-1"?>
<!-- Generator: Adobe Illustrator 19.0.0, SVG Export Plug-In . SVG Version: 6.00 Build 0)  -->
<svg version="1.1" id="Capa_1" xmlns="http://www.w3.org/2000/svg" xmlns:xlink="http://www.w3.org/1999/xlink" x="0px" y="0px"
	 viewBox="0 0 480 480" style="enable-background:new 0 0 480 480;" xml:space="preserve">
<g>
	<g>
		<path d="M384,0H96C65.087,0.035,40.035,25.087,40,56v24c0,8.837,7.163,16,16,16h80v288H56c-8.837,0-16,7.163-16,16v24
			c0.035,30.913,25.087,55.965,56,56h288c30.913-0.035,55.965-25.087,56-56V56C439.965,25.087,414.913,0.035,384,0z M56,80V56
			c0-22.091,17.909-40,40-40s40,17.909,40,40v24H56z M96,464c-22.091,0-40-17.909-40-40v-24h80v24C136,446.091,118.091,464,96,464z
			 M424,424c-0.026,22.08-17.92,39.974-40,40H135.12c10.794-10.509,16.882-24.935,16.88-40V56c0.002-15.065-6.086-29.491-16.88-40
			H384c22.08,0.026,39.974,17.92,40,40V424z"/>
	</g>
</g>
<g>
	<g>
		<path d="M200,208c-17.673,0-32,14.327-32,32s14.327,32,32,32s32-14.327,32-32S217.673,208,200,208z M200,256
			c-8.837,0-16-7.163-16-16s7.163-16,16-16s16,7.163,16,16S208.837,256,200,256z"/>
	</g>
</g>
<g>
	<g>
		<rect x="264" y="232" width="144" height="16"/>
	</g>
</g>
<g>
	<g>
		<path d="M200,96c-17.673,0-32,14.327-32,32s14.327,32,32,32s32-14.327,32-32S217.673,96,200,96z M200,144c-8.837,0-16-7.163-16-16
			s7.163-16,16-16s16,7.163,16,16S208.837,144,200,144z"/>
	</g>
</g>
<g>
	<g>
		<rect x="264" y="120" width="144" height="16"/>
	</g>
</g>
<g>
	<g>
		<path d="M200,320c-17.673,0-32,14.327-32,32c0,17.673,14.327,32,32,32s32-14.327,32-32C232,334.327,217.673,320,200,320z M200,368
			c-8.837,0-16-7.163-16-16s7.163-16,16-16s16,7.163,16,16S208.837,368,200,368z"/>
	</g>
</g>
<g>
	<g>
		<rect x="264" y="344" width="144" height="16"/>
	</g>
</g>
<g>
</g>
<g>
</g>
<g>
</g>
<g>
</g>
<g>
</g>
<g>
</g>
<g>
</g>
<g>
</g>
<g>
</g>
<g>
</g>
<g>
</g>
<g>
</g>
<g>
</g>
<g>
</g>
<g>
</g>
</svg>
