<?xml version="1.0" encoding="iso-8859-1"?>
<!-- Generator: Adobe Illustrator 17.1.0, SVG Export Plug-In . SVG Version: 6.00 Build 0)  -->
<!DOCTYPE svg PUBLIC "-//W3C//DTD SVG 1.1//EN" "http://www.w3.org/Graphics/SVG/1.1/DTD/svg11.dtd">
<svg version="1.1" id="Capa_1" xmlns="http://www.w3.org/2000/svg" xmlns:xlink="http://www.w3.org/1999/xlink" x="0px" y="0px"
	 viewBox="0 0 322.208 322.208" style="enable-background:new 0 0 322.208 322.208;" xml:space="preserve">
<path d="M211.783,211.531l-76.24,0.241l-28.808,103.84c-1.105,3.985-4.725,6.596-8.667,6.597c-0.036,0-0.073-0.007-0.11-0.007
	c-0.014,0-0.027,0.002-0.041,0.002H69.738c-4.971,0-9-4.029-9-9s4.029-9,9-9h21.483l28.801-103.815
	c1.078-3.887,4.61-6.582,8.644-6.594l74.089-0.234v-85.324c-16.335,4.768-34.444,22.219-54.016,52.085h23.434c4.971,0,9,4.029,9,9
	s-4.029,9-9,9H95.44c-3.804,0-7.197-2.391-8.476-5.974l-25.453-71.279c-1.671-4.681,0.769-9.831,5.45-11.502
	c4.682-1.671,9.831,0.769,11.502,5.45l23.319,65.305h26.121c0.224-0.865,0.58-1.712,1.078-2.511
	c28.914-46.381,55.988-68.927,82.771-68.927c0,0,0,0,0,0h0.001c4.971,0,9,4.029,9,9v104.648c0,0.145-0.015,0.286-0.022,0.43
	c-0.008,0.159-0.008,0.32-0.024,0.477c-0.015,0.145-0.043,0.285-0.064,0.427c-0.023,0.156-0.04,0.314-0.071,0.467
	c-0.029,0.142-0.071,0.279-0.106,0.418c-0.038,0.148-0.069,0.299-0.114,0.444c-0.044,0.144-0.102,0.282-0.153,0.423
	c-0.049,0.135-0.092,0.272-0.148,0.404c-0.06,0.142-0.131,0.277-0.198,0.414c-0.06,0.124-0.114,0.252-0.18,0.373
	c-0.073,0.134-0.157,0.261-0.236,0.391c-0.071,0.117-0.137,0.238-0.214,0.352c-0.087,0.129-0.184,0.249-0.277,0.373
	c-0.08,0.107-0.155,0.217-0.239,0.32c-0.099,0.12-0.208,0.232-0.313,0.347c-0.089,0.098-0.173,0.2-0.267,0.293
	c-0.108,0.108-0.225,0.207-0.338,0.309c-0.1,0.091-0.196,0.187-0.3,0.273c-0.114,0.095-0.237,0.179-0.356,0.268
	c-0.112,0.084-0.221,0.173-0.337,0.252c-0.119,0.08-0.245,0.15-0.367,0.225c-0.125,0.076-0.246,0.157-0.375,0.228
	c-0.125,0.068-0.257,0.125-0.386,0.187c-0.133,0.065-0.263,0.135-0.4,0.193c-0.135,0.057-0.275,0.102-0.413,0.153
	c-0.138,0.051-0.272,0.107-0.413,0.151c-0.14,0.044-0.285,0.074-0.428,0.111c-0.145,0.038-0.288,0.081-0.435,0.112
	c-0.145,0.03-0.294,0.046-0.442,0.069c-0.15,0.023-0.298,0.053-0.451,0.069c-0.151,0.015-0.305,0.016-0.458,0.025
	C212.081,211.515,211.934,211.53,211.783,211.531z M261.47,241.342c0-0.026-0.004-0.051-0.004-0.077V75.923c0-4.971-4.029-9-9-9
	s-9,4.029-9,9v156.419h-82.712c-4.971,0-9,4.029-9,9s4.029,9,9,9h36.859V304.2h-15.102c-4.971,0-9,4.029-9,9s4.029,9,9,9h24.053
	c0.016,0,0.032,0.002,0.048,0.002s0.032-0.002,0.048-0.002h24.053c4.971,0,9-4.029,9-9s-4.029-9-9-9h-15.102v-53.858h36.815
	c0.013,0,0.026,0.002,0.039,0.002c1.554,0,3.015-0.394,4.291-1.087C259.564,247.734,261.47,244.76,261.47,241.342z M163.172,37.529
	C163.172,16.835,180.008,0,200.702,0s37.528,16.835,37.528,37.529s-16.835,37.528-37.528,37.528S163.172,58.222,163.172,37.529z
	 M181.172,37.529c0,10.768,8.761,19.528,19.529,19.528c10.768,0,19.528-8.76,19.528-19.528S211.469,18,200.702,18
	C189.933,18,181.172,26.761,181.172,37.529z M100.018,90.728c1.394,0,2.809-0.325,4.131-1.01l15.935-8.251
	c4.414-2.286,6.139-7.717,3.854-12.131c-2.286-4.414-7.717-6.137-12.131-3.854l-15.935,8.251c-4.414,2.286-6.139,7.717-3.854,12.131
	C93.619,88.956,96.761,90.728,100.018,90.728z M108.374,100.602c-4.693-1.641-9.826,0.833-11.466,5.525
	c-1.641,4.692,0.833,9.826,5.525,11.466l5.362,1.875c0.983,0.344,1.985,0.507,2.97,0.507c3.719,0,7.199-2.323,8.496-6.032
	c1.641-4.692-0.833-9.826-5.525-11.466L108.374,100.602z"/>
<g>
</g>
<g>
</g>
<g>
</g>
<g>
</g>
<g>
</g>
<g>
</g>
<g>
</g>
<g>
</g>
<g>
</g>
<g>
</g>
<g>
</g>
<g>
</g>
<g>
</g>
<g>
</g>
<g>
</g>
</svg>
